# xmcd
#
# Track frame offsets: 
#        150
#        16662
#        32426
#        51582
#        67486
#        79616
#        90478
#        103656
#        119767
#        140110
#        149580
#        165382
#
# Disc length: 2486 seconds
#
# Revision: 0
# Processed by: cddbd v1.5.2PL0 Copyright (c) Steve Scherf et al.
# Submitted via: ExactAudioCopy v0.95b4
#
DISCID=ab09b40c
DTITLE=Baskery - Fall Among Thieves
DYEAR=2008
DGENRE=
TTITLE0=The Brave
TTITLE1=One Horse Down
TTITLE2=On A Day Like This
TTITLE3=Spoken Word
TTITLE4=Out-Of-Towner
TTITLE5=Oscar Jr Restaurant Bar
TTITLE6=Here To Pay My Dues
TTITLE7=Harsh
TTITLE8=Hold On
TTITLE9=Why Don't Ya
TTITLE10=I Haunt You
TTITLE11=The Wise
EXTD=
EXTT0=
EXTT1=
EXTT2=
EXTT3=
EXTT4=
EXTT5=
EXTT6=
EXTT7=
EXTT8=
EXTT9=
EXTT10=
EXTT11=
PLAYORDER=
